<mxfile host="app.diagrams.net" agent="Mozilla/5.0 (Macintosh; Intel Mac OS X 10_15_7) AppleWebKit/537.36 (KHTML, like Gecko) Chrome/127.0.0.0 Safari/537.36" version="24.7.7">
  <diagram name="Page-1" id="nLGqvxZKziUYNAlp30nI">
    <mxGraphModel dx="2261" dy="786" grid="1" gridSize="10" guides="1" tooltips="1" connect="1" arrows="1" fold="1" page="1" pageScale="1" pageWidth="827" pageHeight="1169" math="0" shadow="0">
      <root>
        <mxCell id="0" />
        <mxCell id="1" parent="0" />
        <mxCell id="YbKHM1qgpRkM0NyHBMaA-10" style="edgeStyle=orthogonalEdgeStyle;rounded=0;orthogonalLoop=1;jettySize=auto;html=1;entryX=0;entryY=0.5;entryDx=0;entryDy=0;exitX=0;exitY=0.5;exitDx=0;exitDy=0;fillColor=#d5e8d4;gradientColor=#97d077;strokeColor=#82b366;strokeWidth=2;" edge="1" parent="1" source="YbKHM1qgpRkM0NyHBMaA-5" target="YbKHM1qgpRkM0NyHBMaA-2">
          <mxGeometry relative="1" as="geometry">
            <Array as="points">
              <mxPoint x="100" y="790" />
              <mxPoint x="100" y="390" />
            </Array>
          </mxGeometry>
        </mxCell>
        <mxCell id="YbKHM1qgpRkM0NyHBMaA-11" value="&lt;font style=&quot;font-size: 16px;&quot;&gt;&lt;b&gt;②&lt;/b&gt;&lt;/font&gt;通过NIBSS行间转账（必须经过NIBSS）" style="edgeLabel;html=1;align=center;verticalAlign=middle;resizable=0;points=[];" vertex="1" connectable="0" parent="YbKHM1qgpRkM0NyHBMaA-10">
          <mxGeometry x="0.3962" y="1" relative="1" as="geometry">
            <mxPoint x="-95" y="61" as="offset" />
          </mxGeometry>
        </mxCell>
        <mxCell id="YbKHM1qgpRkM0NyHBMaA-1" value="ACCESS（Bank &amp;amp; Channel）" style="swimlane;whiteSpace=wrap;html=1;fillColor=#dae8fc;strokeColor=#6c8ebf;" vertex="1" parent="1">
          <mxGeometry x="160" y="560" width="200" height="280" as="geometry" />
        </mxCell>
        <mxCell id="YbKHM1qgpRkM0NyHBMaA-23" style="edgeStyle=orthogonalEdgeStyle;rounded=0;orthogonalLoop=1;jettySize=auto;html=1;entryX=0.5;entryY=0;entryDx=0;entryDy=0;dashed=1;endArrow=none;endFill=0;" edge="1" parent="YbKHM1qgpRkM0NyHBMaA-1" source="YbKHM1qgpRkM0NyHBMaA-4" target="YbKHM1qgpRkM0NyHBMaA-5">
          <mxGeometry relative="1" as="geometry" />
        </mxCell>
        <mxCell id="YbKHM1qgpRkM0NyHBMaA-4" value="Bank&lt;div&gt;PalmPay的资金账户：&lt;/div&gt;&lt;div&gt;1234567890&lt;/div&gt;" style="rounded=0;whiteSpace=wrap;html=1;fillColor=#fff2cc;strokeColor=#d6b656;gradientColor=#ffd966;" vertex="1" parent="YbKHM1qgpRkM0NyHBMaA-1">
          <mxGeometry x="30" y="40" width="140" height="60" as="geometry" />
        </mxCell>
        <mxCell id="YbKHM1qgpRkM0NyHBMaA-5" value="Channel&lt;div&gt;&lt;br&gt;&lt;div&gt;行间转账能力✅&lt;/div&gt;&lt;/div&gt;" style="rounded=0;whiteSpace=wrap;html=1;" vertex="1" parent="YbKHM1qgpRkM0NyHBMaA-1">
          <mxGeometry x="40" y="200" width="120" height="60" as="geometry" />
        </mxCell>
        <mxCell id="YbKHM1qgpRkM0NyHBMaA-15" style="edgeStyle=orthogonalEdgeStyle;rounded=0;orthogonalLoop=1;jettySize=auto;html=1;entryX=0.5;entryY=0;entryDx=0;entryDy=0;fillColor=#d5e8d4;gradientColor=#97d077;strokeColor=#82b366;strokeWidth=2;" edge="1" parent="1" source="YbKHM1qgpRkM0NyHBMaA-2" target="YbKHM1qgpRkM0NyHBMaA-8">
          <mxGeometry relative="1" as="geometry" />
        </mxCell>
        <mxCell id="YbKHM1qgpRkM0NyHBMaA-20" value="&lt;font style=&quot;font-size: 16px;&quot;&gt;&lt;b&gt;③&lt;/b&gt;&lt;/font&gt;向PalmPay发起入金（&lt;font size=&quot;1&quot; color=&quot;#ff0000&quot;&gt;&lt;b style=&quot;font-size: 14px;&quot;&gt;这一步作用于流动性&lt;/b&gt;&lt;/font&gt;）" style="edgeLabel;html=1;align=center;verticalAlign=middle;resizable=0;points=[];" vertex="1" connectable="0" parent="YbKHM1qgpRkM0NyHBMaA-15">
          <mxGeometry x="-0.3355" y="1" relative="1" as="geometry">
            <mxPoint x="142" y="-14" as="offset" />
          </mxGeometry>
        </mxCell>
        <mxCell id="YbKHM1qgpRkM0NyHBMaA-17" style="edgeStyle=orthogonalEdgeStyle;rounded=0;orthogonalLoop=1;jettySize=auto;html=1;entryX=0;entryY=0.5;entryDx=0;entryDy=0;dashed=1;strokeWidth=2;fillColor=#ffcd28;gradientColor=#ffa500;strokeColor=#d79b00;exitX=0.5;exitY=0;exitDx=0;exitDy=0;" edge="1" parent="1" source="YbKHM1qgpRkM0NyHBMaA-2" target="YbKHM1qgpRkM0NyHBMaA-9">
          <mxGeometry relative="1" as="geometry">
            <Array as="points">
              <mxPoint x="560" y="100" />
            </Array>
          </mxGeometry>
        </mxCell>
        <mxCell id="YbKHM1qgpRkM0NyHBMaA-18" value="T+1的资金流" style="edgeLabel;html=1;align=center;verticalAlign=middle;resizable=0;points=[];" vertex="1" connectable="0" parent="YbKHM1qgpRkM0NyHBMaA-17">
          <mxGeometry x="-0.3" y="1" relative="1" as="geometry">
            <mxPoint as="offset" />
          </mxGeometry>
        </mxCell>
        <mxCell id="YbKHM1qgpRkM0NyHBMaA-28" style="edgeStyle=orthogonalEdgeStyle;rounded=0;orthogonalLoop=1;jettySize=auto;html=1;entryX=0.5;entryY=0;entryDx=0;entryDy=0;exitX=1;exitY=0.5;exitDx=0;exitDy=0;fillColor=#dae8fc;gradientColor=#7ea6e0;strokeColor=#6c8ebf;strokeWidth=2;" edge="1" parent="1" source="YbKHM1qgpRkM0NyHBMaA-2" target="YbKHM1qgpRkM0NyHBMaA-4">
          <mxGeometry relative="1" as="geometry">
            <Array as="points">
              <mxPoint x="740" y="390" />
              <mxPoint x="740" y="540" />
              <mxPoint x="260" y="540" />
            </Array>
          </mxGeometry>
        </mxCell>
        <mxCell id="YbKHM1qgpRkM0NyHBMaA-32" value="&lt;b&gt;&lt;font style=&quot;font-size: 16px;&quot;&gt;⑥&lt;/font&gt;&lt;/b&gt;向ACCESS发起入金" style="edgeLabel;html=1;align=center;verticalAlign=middle;resizable=0;points=[];" vertex="1" connectable="0" parent="YbKHM1qgpRkM0NyHBMaA-28">
          <mxGeometry x="0.1662" relative="1" as="geometry">
            <mxPoint as="offset" />
          </mxGeometry>
        </mxCell>
        <mxCell id="YbKHM1qgpRkM0NyHBMaA-2" value="NIBSS" style="swimlane;whiteSpace=wrap;html=1;fillColor=#008a00;fontColor=#ffffff;strokeColor=#005700;" vertex="1" parent="1">
          <mxGeometry x="460" y="290" width="200" height="200" as="geometry" />
        </mxCell>
        <mxCell id="YbKHM1qgpRkM0NyHBMaA-33" value="出金API" style="shape=providedRequiredInterface;html=1;verticalLabelPosition=bottom;sketch=0;" vertex="1" parent="YbKHM1qgpRkM0NyHBMaA-2">
          <mxGeometry y="85" width="30" height="30" as="geometry" />
        </mxCell>
        <mxCell id="YbKHM1qgpRkM0NyHBMaA-34" value="入金SPI" style="shape=providedRequiredInterface;html=1;verticalLabelPosition=bottom;sketch=0;" vertex="1" parent="YbKHM1qgpRkM0NyHBMaA-2">
          <mxGeometry x="170" y="85" width="30" height="30" as="geometry" />
        </mxCell>
        <mxCell id="YbKHM1qgpRkM0NyHBMaA-35" style="edgeStyle=orthogonalEdgeStyle;rounded=0;orthogonalLoop=1;jettySize=auto;html=1;entryX=0;entryY=0.5;entryDx=0;entryDy=0;entryPerimeter=0;" edge="1" parent="YbKHM1qgpRkM0NyHBMaA-2" source="YbKHM1qgpRkM0NyHBMaA-33" target="YbKHM1qgpRkM0NyHBMaA-34">
          <mxGeometry relative="1" as="geometry" />
        </mxCell>
        <mxCell id="YbKHM1qgpRkM0NyHBMaA-13" style="edgeStyle=orthogonalEdgeStyle;rounded=0;orthogonalLoop=1;jettySize=auto;html=1;entryX=1;entryY=0.5;entryDx=0;entryDy=0;exitX=0;exitY=0.5;exitDx=0;exitDy=0;fillColor=#d5e8d4;gradientColor=#97d077;strokeColor=#82b366;strokeWidth=2;" edge="1" parent="1" source="YbKHM1qgpRkM0NyHBMaA-12" target="YbKHM1qgpRkM0NyHBMaA-5">
          <mxGeometry relative="1" as="geometry" />
        </mxCell>
        <mxCell id="YbKHM1qgpRkM0NyHBMaA-14" value="&lt;b&gt;&lt;font style=&quot;font-size: 16px;&quot;&gt;①&lt;/font&gt;&lt;/b&gt;通过ACCESS-Other渠道，发起出金，收款账号为：PalmPay-8888888888" style="edgeLabel;html=1;align=center;verticalAlign=middle;resizable=0;points=[];" vertex="1" connectable="0" parent="YbKHM1qgpRkM0NyHBMaA-13">
          <mxGeometry x="0.1243" y="1" relative="1" as="geometry">
            <mxPoint as="offset" />
          </mxGeometry>
        </mxCell>
        <mxCell id="YbKHM1qgpRkM0NyHBMaA-3" value="PalmPay" style="swimlane;whiteSpace=wrap;html=1;fillColor=#e1d5e7;strokeColor=#9673a6;" vertex="1" parent="1">
          <mxGeometry x="827" y="560" width="200" height="280" as="geometry" />
        </mxCell>
        <mxCell id="YbKHM1qgpRkM0NyHBMaA-8" value="财资银行账户：8888888888" style="rounded=0;whiteSpace=wrap;html=1;fillColor=#fff2cc;gradientColor=#ffd966;strokeColor=#d6b656;" vertex="1" parent="YbKHM1qgpRkM0NyHBMaA-3">
          <mxGeometry x="40" y="40" width="120" height="60" as="geometry" />
        </mxCell>
        <mxCell id="YbKHM1qgpRkM0NyHBMaA-12" value="内部户，在ACCESS的资金账户的镜像：&lt;div&gt;1234567890&lt;/div&gt;" style="rounded=0;whiteSpace=wrap;html=1;" vertex="1" parent="YbKHM1qgpRkM0NyHBMaA-3">
          <mxGeometry x="40" y="200" width="120" height="60" as="geometry" />
        </mxCell>
        <mxCell id="YbKHM1qgpRkM0NyHBMaA-25" value="内部户，在FCMB的NIBSS结算账户镜像：&lt;div&gt;6666666666&lt;/div&gt;" style="rounded=0;whiteSpace=wrap;html=1;" vertex="1" parent="YbKHM1qgpRkM0NyHBMaA-3">
          <mxGeometry x="35" y="120" width="130" height="60" as="geometry" />
        </mxCell>
        <mxCell id="YbKHM1qgpRkM0NyHBMaA-6" value="FCMB（Bank &amp;amp; Channel）" style="swimlane;whiteSpace=wrap;html=1;" vertex="1" parent="1">
          <mxGeometry x="827" y="30" width="200" height="290" as="geometry" />
        </mxCell>
        <mxCell id="YbKHM1qgpRkM0NyHBMaA-7" value="&lt;div&gt;PalmPay在NIBSS的保证金：xx美元&lt;/div&gt;" style="rounded=0;whiteSpace=wrap;html=1;" vertex="1" parent="YbKHM1qgpRkM0NyHBMaA-6">
          <mxGeometry x="40" y="210" width="120" height="60" as="geometry" />
        </mxCell>
        <mxCell id="YbKHM1qgpRkM0NyHBMaA-24" style="edgeStyle=orthogonalEdgeStyle;rounded=0;orthogonalLoop=1;jettySize=auto;html=1;entryX=0.5;entryY=0;entryDx=0;entryDy=0;dashed=1;endArrow=none;endFill=0;" edge="1" parent="YbKHM1qgpRkM0NyHBMaA-6" source="YbKHM1qgpRkM0NyHBMaA-9" target="YbKHM1qgpRkM0NyHBMaA-22">
          <mxGeometry relative="1" as="geometry" />
        </mxCell>
        <mxCell id="YbKHM1qgpRkM0NyHBMaA-9" value="NIBSS结算账户&lt;div&gt;6666666666&lt;/div&gt;" style="rounded=0;whiteSpace=wrap;html=1;fillColor=#fff2cc;gradientColor=#ffd966;strokeColor=#d6b656;" vertex="1" parent="YbKHM1qgpRkM0NyHBMaA-6">
          <mxGeometry x="40" y="40" width="120" height="60" as="geometry" />
        </mxCell>
        <mxCell id="YbKHM1qgpRkM0NyHBMaA-22" value="Channel&lt;div&gt;&lt;br&gt;&lt;div&gt;行间转账能力✅&lt;/div&gt;&lt;/div&gt;" style="rounded=0;whiteSpace=wrap;html=1;" vertex="1" parent="YbKHM1qgpRkM0NyHBMaA-6">
          <mxGeometry x="40" y="130" width="120" height="60" as="geometry" />
        </mxCell>
        <mxCell id="YbKHM1qgpRkM0NyHBMaA-26" style="edgeStyle=orthogonalEdgeStyle;rounded=0;orthogonalLoop=1;jettySize=auto;html=1;entryX=1;entryY=0.5;entryDx=0;entryDy=0;exitX=1;exitY=0.5;exitDx=0;exitDy=0;strokeWidth=2;fillColor=#dae8fc;gradientColor=#7ea6e0;strokeColor=#6c8ebf;" edge="1" parent="1" source="YbKHM1qgpRkM0NyHBMaA-25" target="YbKHM1qgpRkM0NyHBMaA-22">
          <mxGeometry relative="1" as="geometry">
            <Array as="points">
              <mxPoint x="1170" y="710" />
              <mxPoint x="1170" y="190" />
            </Array>
          </mxGeometry>
        </mxCell>
        <mxCell id="YbKHM1qgpRkM0NyHBMaA-29" value="&lt;b&gt;&lt;font style=&quot;font-size: 16px;&quot;&gt;④&lt;/font&gt;&lt;/b&gt;通过FCMB-Other渠道，发起出金，收款账号为：ACCESS-1234567890" style="edgeLabel;html=1;align=center;verticalAlign=middle;resizable=0;points=[];" vertex="1" connectable="0" parent="YbKHM1qgpRkM0NyHBMaA-26">
          <mxGeometry x="-0.0273" y="-2" relative="1" as="geometry">
            <mxPoint as="offset" />
          </mxGeometry>
        </mxCell>
        <mxCell id="YbKHM1qgpRkM0NyHBMaA-27" style="edgeStyle=orthogonalEdgeStyle;rounded=0;orthogonalLoop=1;jettySize=auto;html=1;entryX=0;entryY=0.5;entryDx=0;entryDy=0;fillColor=#dae8fc;gradientColor=#7ea6e0;strokeColor=#6c8ebf;strokeWidth=2;exitX=0;exitY=0.5;exitDx=0;exitDy=0;" edge="1" parent="1" source="YbKHM1qgpRkM0NyHBMaA-22" target="YbKHM1qgpRkM0NyHBMaA-2">
          <mxGeometry relative="1" as="geometry">
            <Array as="points">
              <mxPoint x="370" y="190" />
              <mxPoint x="370" y="390" />
            </Array>
          </mxGeometry>
        </mxCell>
        <mxCell id="YbKHM1qgpRkM0NyHBMaA-30" value="&lt;b&gt;&lt;font style=&quot;font-size: 16px;&quot;&gt;⑤&lt;/font&gt;&lt;/b&gt;通过NIBSS行间转账（可以不经过NIBSS）" style="edgeLabel;html=1;align=center;verticalAlign=middle;resizable=0;points=[];" vertex="1" connectable="0" parent="YbKHM1qgpRkM0NyHBMaA-27">
          <mxGeometry x="-0.6278" y="-1" relative="1" as="geometry">
            <mxPoint x="-31" y="-9" as="offset" />
          </mxGeometry>
        </mxCell>
        <mxCell id="YbKHM1qgpRkM0NyHBMaA-36" value="注意：&lt;div&gt;1.NIBSS的保证金以美金存款在FCMB&lt;/div&gt;&lt;div&gt;2.PalmPay的NIBSS结算账户，开设在FCMB&lt;/div&gt;" style="text;html=1;align=left;verticalAlign=middle;whiteSpace=wrap;rounded=0;" vertex="1" parent="1">
          <mxGeometry x="1040" y="30" width="260" height="50" as="geometry" />
        </mxCell>
        <mxCell id="YbKHM1qgpRkM0NyHBMaA-37" value="ACCESS（Bank）" style="swimlane;whiteSpace=wrap;html=1;align=left;fillColor=#dae8fc;strokeColor=#6c8ebf;" vertex="1" parent="1">
          <mxGeometry x="160" y="1330" width="200" height="200" as="geometry" />
        </mxCell>
        <mxCell id="YbKHM1qgpRkM0NyHBMaA-38" value="PalmPay在ACCESS的资金账户&lt;div&gt;账号：1234567890&lt;/div&gt;&lt;div&gt;资金：1000,000&lt;/div&gt;&lt;div&gt;资金变动： - 60,000&lt;/div&gt;" style="rounded=0;whiteSpace=wrap;html=1;align=left;" vertex="1" parent="YbKHM1qgpRkM0NyHBMaA-37">
          <mxGeometry x="13" y="60" width="175" height="100" as="geometry" />
        </mxCell>
        <mxCell id="YbKHM1qgpRkM0NyHBMaA-39" value="FCMB（Bank）" style="swimlane;whiteSpace=wrap;html=1;" vertex="1" parent="1">
          <mxGeometry x="160" y="980" width="200" height="200" as="geometry" />
        </mxCell>
        <mxCell id="YbKHM1qgpRkM0NyHBMaA-40" value="PalmPay在FCMB开设的结算账户&lt;div&gt;账号：6666666666&lt;/div&gt;&lt;div&gt;资金：0&lt;/div&gt;&lt;div&gt;资金变动：+ 60,000&lt;/div&gt;" style="rounded=0;whiteSpace=wrap;html=1;align=left;" vertex="1" parent="YbKHM1qgpRkM0NyHBMaA-39">
          <mxGeometry x="10" y="50" width="180" height="120" as="geometry" />
        </mxCell>
        <mxCell id="YbKHM1qgpRkM0NyHBMaA-41" value="PalmPay" style="swimlane;whiteSpace=wrap;html=1;fillColor=#e1d5e7;strokeColor=#9673a6;" vertex="1" parent="1">
          <mxGeometry x="540" y="1090" width="200" height="310" as="geometry" />
        </mxCell>
        <mxCell id="YbKHM1qgpRkM0NyHBMaA-42" value="内部户&lt;div&gt;PalmPay在FCMB开设的结算账户&lt;div&gt;账号：6666666666&lt;/div&gt;&lt;div&gt;资金：0&lt;/div&gt;&lt;/div&gt;&lt;div&gt;资金变动：+ 60,000&lt;/div&gt;" style="rounded=0;whiteSpace=wrap;html=1;align=left;dashed=1;" vertex="1" parent="YbKHM1qgpRkM0NyHBMaA-41">
          <mxGeometry x="12.5" y="40" width="177.5" height="100" as="geometry" />
        </mxCell>
        <mxCell id="YbKHM1qgpRkM0NyHBMaA-44" value="内部调账" style="edgeStyle=orthogonalEdgeStyle;rounded=0;orthogonalLoop=1;jettySize=auto;html=1;entryX=0.5;entryY=1;entryDx=0;entryDy=0;dashed=1;" edge="1" parent="YbKHM1qgpRkM0NyHBMaA-41" source="YbKHM1qgpRkM0NyHBMaA-43" target="YbKHM1qgpRkM0NyHBMaA-42">
          <mxGeometry relative="1" as="geometry" />
        </mxCell>
        <mxCell id="YbKHM1qgpRkM0NyHBMaA-43" value="内部户&lt;div&gt;PalmPay在ACCESS的资金账户镜像&lt;div&gt;账号：1234567890&lt;/div&gt;&lt;div&gt;资金：1000,000&lt;/div&gt;&lt;/div&gt;&lt;div&gt;资金变动：- 60,000&lt;/div&gt;" style="rounded=0;whiteSpace=wrap;html=1;align=left;dashed=1;" vertex="1" parent="YbKHM1qgpRkM0NyHBMaA-41">
          <mxGeometry x="13.5" y="190" width="175" height="100" as="geometry" />
        </mxCell>
        <mxCell id="YbKHM1qgpRkM0NyHBMaA-45" style="edgeStyle=orthogonalEdgeStyle;rounded=0;orthogonalLoop=1;jettySize=auto;html=1;entryX=0;entryY=0.5;entryDx=0;entryDy=0;endArrow=none;endFill=0;dashed=1;" edge="1" parent="1" source="YbKHM1qgpRkM0NyHBMaA-38" target="YbKHM1qgpRkM0NyHBMaA-43">
          <mxGeometry relative="1" as="geometry" />
        </mxCell>
        <mxCell id="YbKHM1qgpRkM0NyHBMaA-46" value="镜像" style="edgeLabel;html=1;align=center;verticalAlign=middle;resizable=0;points=[];" vertex="1" connectable="0" parent="YbKHM1qgpRkM0NyHBMaA-45">
          <mxGeometry x="-0.0061" y="-2" relative="1" as="geometry">
            <mxPoint as="offset" />
          </mxGeometry>
        </mxCell>
        <mxCell id="YbKHM1qgpRkM0NyHBMaA-47" style="edgeStyle=orthogonalEdgeStyle;rounded=0;orthogonalLoop=1;jettySize=auto;html=1;entryX=0;entryY=0.5;entryDx=0;entryDy=0;endArrow=none;endFill=0;dashed=1;" edge="1" parent="1" source="YbKHM1qgpRkM0NyHBMaA-40" target="YbKHM1qgpRkM0NyHBMaA-42">
          <mxGeometry relative="1" as="geometry" />
        </mxCell>
        <mxCell id="YbKHM1qgpRkM0NyHBMaA-48" value="镜像" style="edgeLabel;html=1;align=center;verticalAlign=middle;resizable=0;points=[];" vertex="1" connectable="0" parent="YbKHM1qgpRkM0NyHBMaA-47">
          <mxGeometry x="-0.068" y="1" relative="1" as="geometry">
            <mxPoint as="offset" />
          </mxGeometry>
        </mxCell>
        <mxCell id="YbKHM1qgpRkM0NyHBMaA-49" style="edgeStyle=orthogonalEdgeStyle;rounded=0;orthogonalLoop=1;jettySize=auto;html=1;entryX=0.5;entryY=1;entryDx=0;entryDy=0;" edge="1" parent="1" source="YbKHM1qgpRkM0NyHBMaA-38" target="YbKHM1qgpRkM0NyHBMaA-40">
          <mxGeometry relative="1" as="geometry" />
        </mxCell>
        <mxCell id="YbKHM1qgpRkM0NyHBMaA-50" value="[资金流] 经过NIBSS对PalmPay做入金" style="edgeLabel;html=1;align=center;verticalAlign=middle;resizable=0;points=[];" vertex="1" connectable="0" parent="YbKHM1qgpRkM0NyHBMaA-49">
          <mxGeometry x="0.1435" y="-1" relative="1" as="geometry">
            <mxPoint y="1" as="offset" />
          </mxGeometry>
        </mxCell>
      </root>
    </mxGraphModel>
  </diagram>
</mxfile>
